<?xml version="1.0" encoding="UTF-8"?>
<svg width="11px" height="10px" viewBox="0 0 11 10" version="1.1" xmlns="http://www.w3.org/2000/svg" xmlns:xlink="http://www.w3.org/1999/xlink">
    <title>形状</title>
    <g id="会员优惠礼包" stroke="none" stroke-width="1" fill="none" fill-rule="evenodd">
        <g id="详情-会员红包" transform="translate(-1009.000000, -383.000000)" fill="#3EAFFD" fill-rule="nonzero">
            <g id="编组-2" transform="translate(224.000000, 102.000000)">
                <g id="Group-16" transform="translate(314.000000, 24.000000)">
                    <g id="编组-8" transform="translate(2.000000, 252.000000)">
                        <g id="编组-9" transform="translate(409.000000, 1.000000)">
                            <g id="下--拉" transform="translate(65.500000, 8.991203) rotate(-90.000000) translate(-65.500000, -8.991203) translate(60.000000, 2.991203)">
                                <path d="M5.99856434,11.2405578 C5.85760898,11.3930745 5.66966849,11.5286449 5.48694858,11.4947523 C5.30422866,11.5286449 5.13717045,11.3761282 4.99621509,11.2405578 L0.668363352,6.54643379 C0.443878883,6.30353688 0.443878883,5.9250696 0.668363352,5.68217268 C0.89284782,5.43927577 1.24262595,5.43927577 1.46711042,5.68217268 L5.49216915,10.1559949 L9.53288958,5.68782145 C9.75737405,5.44492454 10.1071522,5.44492454 10.3316366,5.68782145 C10.5561211,5.93071836 10.5561211,6.30918564 10.3316366,6.55208255 L5.99856434,11.2405578 Z M5.99856434,6.24055782 C5.85760898,6.39307449 5.66966849,6.52864486 5.48694858,6.49475226 C5.30422866,6.52864486 5.13717045,6.37612819 4.99621509,6.24055782 L0.668363352,1.54643379 C0.443878883,1.30353688 0.443878883,0.925069595 0.668363352,0.682172684 C0.89284782,0.439275772 1.24262595,0.439275772 1.46711042,0.682172684 L5.49216915,5.15599487 L9.53288958,0.687821449 C9.75737405,0.444924538 10.1071522,0.444924538 10.3316366,0.687821449 C10.5561211,0.93071836 10.5561211,1.30918564 10.3316366,1.55208255 L5.99856434,6.24055782 Z" id="形状"></path>
                            </g>
                        </g>
                    </g>
                </g>
            </g>
        </g>
    </g>
</svg>